<svg width="48" height="48" viewBox="0 0 48 48" fill="none" xmlns="http://www.w3.org/2000/svg">
<mask id="mask0" mask-type="alpha" maskUnits="userSpaceOnUse" x="0" y="0" width="48" height="48">
<circle cx="24" cy="24" r="17.927" transform="rotate(-26.2001 24 24)" fill="#EAEAEA"/>
</mask>
<g mask="url(#mask0)">
<circle cx="28.6226" cy="26.9832" r="17.927" transform="rotate(-26.2001 28.6226 26.9832)" fill="#EAEAEA"/>
</g>
<path d="M17.19 21.1H22.817C24.1203 21.1 25.2763 21.3437 26.285 21.831C27.2937 22.3183 28.0757 23.0097 28.631 23.905C29.1863 24.8003 29.464 25.8487 29.464 27.05C29.464 28.2513 29.1863 29.2997 28.631 30.195C28.0757 31.0903 27.2937 31.7817 26.285 32.269C25.2763 32.7563 24.1203 33 22.817 33H17.19V21.1ZM22.681 30.314C23.701 30.314 24.517 30.025 25.129 29.447C25.7523 28.869 26.064 28.07 26.064 27.05C26.064 26.03 25.7523 25.231 25.129 24.653C24.517 24.075 23.701 23.786 22.681 23.786H20.556V30.314H22.681Z" fill="black"/>
<path d="M36.7599 25.758V27.441H30.6909V26.098L33.5129 23.667C33.7963 23.429 33.9889 23.2307 34.0909 23.072C34.1929 22.902 34.2439 22.7433 34.2439 22.596C34.2439 22.4033 34.1646 22.2503 34.0059 22.137C33.8473 22.0123 33.6036 21.95 33.2749 21.95C32.9689 21.95 32.6969 22.0123 32.4589 22.137C32.2323 22.2503 32.0509 22.4203 31.9149 22.647L30.2659 21.763C30.5379 21.287 30.9459 20.913 31.4899 20.641C32.0339 20.369 32.6969 20.233 33.4789 20.233C34.3969 20.233 35.1336 20.437 35.6889 20.845C36.2443 21.2417 36.5219 21.7687 36.5219 22.426C36.5219 22.7887 36.4256 23.1343 36.2329 23.463C36.0403 23.7917 35.6833 24.1883 35.1619 24.653L33.8699 25.758H36.7599Z" fill="#030303"/>
</svg>
