<svg width="24" height="24" viewBox="0 0 24 24" fill="none" xmlns="http://www.w3.org/2000/svg">
<path d="M10.771 22C10.125 22.646 9.236 23 8.349 23C7.475 23 6.603 22.654 5.973 22.024C4.703 20.754 4.665 18.461 5.949 17.178L10.771 22ZM21.63 0C21.012 0 20.392 0.237 19.917 0.711L19.915 0.714C19.311 1.319 18.435 1.559 17.615 1.341C11.686 -0.233 6.604 9.161 1.405 6.52L0 7.926L16.075 24L17.479 22.594C14.838 17.397 24.235 12.314 22.658 6.384C22.441 5.567 22.681 4.688 23.285 4.086L23.287 4.083C23.762 3.607 24 2.987 24 2.369C24 1.059 22.945 0 21.63 0V0ZM18.151 13.443C16.125 16.4 15.422 17.676 15.011 20.111L3.888 8.986L4.415 8.898C6.652 8.524 8.727 7.103 10.559 5.849C12.771 4.333 15.062 2.727 17.103 3.274C18.896 3.749 20.25 5.103 20.727 6.898C21.262 8.908 19.751 11.111 18.151 13.443V13.443ZM22.504 3.104C22.06 3.547 21.341 3.546 20.897 3.103C20.454 2.66 20.453 1.94 20.897 1.497C21.341 1.053 22.061 1.053 22.504 1.496C22.947 1.939 22.947 2.661 22.504 3.104Z" fill="white"/>
</svg>
