<svg width="98" height="90" viewBox="0 0 98 90" fill="none" xmlns="http://www.w3.org/2000/svg">
<path d="M83.3898 30.7473C82.663 17.5214 71.0133 7.11 57.1258 8.28C52.6873 3.21136 46.1294 0 38.7917 0C25.8393 0 15.2962 9.99409 14.6102 22.5655C6.30875 24.0341 0 31.1768 0 39.7718C0 49.4345 7.95842 57.2727 17.7788 57.2727H23.1933C26.3416 62.1736 31.8663 65.4545 38.1955 65.4545H80.2171C90.0416 65.4545 98 57.6164 98 47.9536C98 39.3586 91.6913 32.2159 83.3898 30.7473ZM20.5269 49.0909H17.7788C12.4828 49.0909 8.16667 44.91 8.16667 39.7718C8.16667 31.1073 16.758 29.1477 22.4093 29.4955C22.2052 23.9482 22.9688 8.18182 38.7917 8.18182C42.7403 8.18182 45.7905 9.20455 48.1425 10.8164C40.6986 14.5882 35.5005 22.05 35.0268 30.7473C26.7703 32.2118 19.9307 39.4486 20.5269 49.0909ZM34.387 78.1924C35.9748 76.6016 35.9748 74.0256 34.387 72.4349V72.4349C32.795 70.84 30.2108 70.84 28.6188 72.4349L19.7172 81.3531C18.1294 82.9438 18.1294 85.5198 19.7172 87.1106V87.1106C21.3091 88.7055 23.8934 88.7055 25.4853 87.1106L34.387 78.1924ZM74.7099 78.1924C76.2977 76.6016 76.2977 74.0256 74.7099 72.4349V72.4349C73.118 70.84 70.5337 70.84 68.9418 72.4349L60.0401 81.3531C58.4523 82.9438 58.4523 85.5198 60.0401 87.1106V87.1106C61.6321 88.7055 64.2163 88.7055 65.8083 87.1106L74.7099 78.1924ZM57.1667 74.6591C57.1667 77.4818 54.8841 79.7727 52.0625 79.7727C49.2409 79.7727 46.9583 77.4818 46.9583 74.6591C46.9583 71.8364 49.2409 69.5455 52.0625 69.5455C54.8841 69.5455 57.1667 71.8364 57.1667 74.6591ZM41.8542 79.7727C39.0326 79.7727 36.75 82.0636 36.75 84.8864C36.75 87.7091 39.0326 90 41.8542 90C44.6758 90 46.9583 87.7091 46.9583 84.8864C46.9583 82.0636 44.6758 79.7727 41.8542 79.7727Z" fill="white"/>
</svg>
